<svg id="Layer_1" data-name="Layer 1" xmlns="http://www.w3.org/2000/svg" viewBox="0 0 720 1003.94"><title>skull</title><path d="M767.46,269.4c-1.65-17.65-6-35.15-10.36-52.43-4.16-16.48-7.24-33.45-17.2-48-11-16-19.82-33.9-32.5-48.34C687.54,98.09,663,80.39,637.12,65.21,618,54,598.2,43.36,577.62,35.2a596.62,596.62,0,0,0-76-24.52C471.22,3.16,440,1.6,408.64,3.8c-27.83,2-55.75,2.69-83.48,5.42-28,2.75-55.71,8.41-82,18.71-29.7,11.64-56.73,27.77-78.66,51.58-12.19,13.22-25.47,25.46-37.32,39a313.21,313.21,0,0,0-28,36.63c-7.55,11.74-13.44,24.66-19.35,37.34-7.3,15.71-15,31.38-20.46,47.75-7.88,23.57-7.17,48.54-7.88,73-.66,25.23-.14,50.6.75,76,.45,13.54,1.24,27.43,4.68,40.42,5.06,19.09,12.41,37.59,19.25,56.18a24,24,0,0,1,1.41,14.09C72.71,522.79,70,546.15,61,568.09c-3.72,9-.25,17.78,5.38,25,13.92,18,28.42,35.48,48.14,47.81,6.23,3.89,13.41,8.69,16.36,14.89a124.2,124.2,0,0,1,11.43,36.44c3.18,24.4,3.93,49-.21,73.63-1.78,10.55-3.24,21.56-2.21,32.1,1.75,17.92,12.95,32,23.52,45.66,12.17,15.74,25.18,30.88,38.63,45.54a893.07,893.07,0,0,0,100.87,94.67,91.09,91.09,0,0,0,45.68,18.85c21.82,2.62,43.93,2.86,65.91,4.13l0-.85c3.47.2,7,.32,10.51.61,13.55,1.07,26-1.51,37.11-10,7.62-5.8,16.06-10.54,24.12-15.78,20.19-13.12,40.07-26.7,60.59-39.27,21.43-13.13,39.37-30.15,56.74-47.9,12.95-13.24,25.64-26.74,38.45-40.13,14.19-14.84,21.28-32.43,19.73-53a240.54,240.54,0,0,0-4.06-32.77c-5.44-25.14-6.58-50.2-.82-75.31,3.35-14.6,8.47-27.57,24.15-34.62,15.17-6.82,27.55-17.75,34.59-33.59a22.64,22.64,0,0,1,4.23-5.57c10.57-11.61,20.87-23.29,31.86-34.66s11.88-24.15,6.92-38.24a125,125,0,0,1-5.07-18.32c-3-15.84-5.57-31.74-8.07-47.65a14.56,14.56,0,0,1,1.24-6.62c5.54-15.7,13.33-31,16.32-47.13a477.78,477.78,0,0,0,8-74.68C771.69,324.08,770,296.62,767.46,269.4ZM647,826.47a110.59,110.59,0,0,1-16.91,24c-14.22,15.5-28.17,31.6-44.21,45.09-33,27.76-66.5,54.91-107.18,71.27-10.41,4.2-19.18,12.46-28.84,18.63-2.69,1.72-5.78,3.52-8.83,3.83-32.72,3.42-65.52,5.54-98.28,1.41a40.2,40.2,0,0,1-19.61-8.28c-17.68-14.6-34.6-30.12-51.64-45.5-14.61-13.19-29.26-26.33-43.35-40.09-13.58-13.24-26.62-27-39.45-41-8.52-9.3-17.25-18.57-24.09-29-6.71-10.26-11.55-21.81-16.36-33.15-1.49-3.52-1.08-8.48,0-12.36,6.57-23.6,7.79-47.54,5.51-71.77-.76-8.14-1.73-16.27-2.63-24.4-.62-5.62,2.09-8.68,7.83-9.2,9-.85,18-1.85,27-2.82,5.21-.56,10.57,4.44,11.67,10.71,3.4,19.64,6.95,39.47,16.91,56.94,6.59,11.45,15.6,21.46,23.5,32.14,4.8,6.48,9.1,13.37,14.39,19.42,6.47,7.37,8.76,18,19.15,22.36,3.76,1.56,5.85,7.48,9.58,8.71,7.19,2.35,13.7,4.73,19.23,10.37,1.68,1.72,7.13-.24,12.36-.63,1.48,2.25,3.59,5.88,6,8.95s4.59,6.13,9.86,4.72c2.14-.55,6,2.3,7.88,4.61,4.45,5.59,9.45,6.83,16.15,4.85a8.74,8.74,0,0,1,7,2c3.48,3.11,6.85,4,10.69,1.41s6.9-2.21,10.47,1.41c4,4.06,9.07,5.71,14.33,1,3.06-2.76,6.5-3.4,10-.21a13.33,13.33,0,0,0,4.4,2.17c2.24.83,31-4.82,33.24-5.64,2.73-1.06,5.83-1,8.78-1.41,3.38-.46,7.26-.06,10.07-1.55,5.09-2.66,9.16-6.69,16-5.38,2.69.51,7.2-1.9,8.9-4.35,2.56-3.73,5.4-4.41,9.37-5.64,5.42-1.66,9.78-8.43,15-8.89,6.86-.62,10.65-3.44,15.09-7.88,5.9-5.89,13.08-10.48,19.5-15.86a31.79,31.79,0,0,0,5.92-6.83c7.43-11.27,14.37-22.78,22.06-33.82,17.4-24.91,28.87-52.37,36.21-81.72,2.89-11.55,7.41-14.77,19.2-14,5.13.32,10.26.06,15.34,1.06s7.3,4.07,5.52,9.86c-9.36,30.59-8.61,61.05-1.21,92.2C652.43,791.06,655.69,809.56,647,826.47Zm-363.32-52.3c-1.42.06-3.61-1.72-4.55-2.68a10.48,10.48,0,0,1-3-6c-.55-4.06,2-11.71,6.41-13a1.94,1.94,0,0,1,1.63.23l.21.18a2.68,2.68,0,0,1,.52,1.48,93.53,93.53,0,0,1,.82,14.78C285.78,771.35,286.3,774.08,283.73,774.17ZM296.26,800c2.35,4.66-.8,10.4-3.2,14.36-.92,1.52-4.11,4.51-5.89,4.95a3,3,0,0,1-1.52-.14c-4.35-1.23-7.51-3.71-7.64-8.57a19.73,19.73,0,0,1,.9-5.48l1.87-7A8.69,8.69,0,0,1,282,795a3.28,3.28,0,0,1,.73-.72h0C286.37,791.78,294.61,796.86,296.26,800Zm.27-42.79c4.3,7.2,2.11,14.12.87,20.84-.14,1-3,2.34-4.37,2.18a5.83,5.83,0,0,1-4-3.09C287.18,772.56,291.38,761.24,296.53,757.24Zm-20.44,42.44c-1.82,3.2-3.89,6.72-6.71,5.47a6.89,6.89,0,0,1-2.49-2.41l-1.41-1.87a4.52,4.52,0,0,1-.72-1.24,4.45,4.45,0,0,1,0-2,107.4,107.4,0,0,1,2.54-12.24c1.31-4.87,5.2-6.14,7.85-1.21S279,794.62,276.08,799.68Zm-7.14-31.86c-2-2-5.21-3.78-5.64-6.07-.92-4.95-.89-10.38,7.16-14.61l1.1,19.27Zm-6.79,26.64c-4.64-3.78-6.2-13.84-3.38-21.13v0C264.4,775,265.68,783,262.15,794.47Zm127.54,16.88-15.41.65c-5.59.23-9.09-2.11-9-8.06.15-9.31-.28-18.78,5-27.15,2.93-4.59,6.52-7.68,12.53-7.61s9.81,3.23,11.64,8.45c2.62,7.43,4.59,15,6.85,22.54l0,0C400,810.93,399.85,811.07,389.69,811.35Zm11,24.15a53.09,53.09,0,0,1-5.78,20.09c-3.07,5.69-8.61,5.13-10.12-1-2.44-10-4.31-20.66-3.62-30.83.44-7.16,8.85-4.82,14.09-4.9,1.66,0,4.44.61,5.27,2.2a7.17,7.17,0,0,1,.58,3.21A91,91,0,0,1,400.65,835.5Zm-31.86-15.16c5.33.07,6.89,3.58,7.37,8.12a108.59,108.59,0,0,1,1,17.49c-.18,3.31-3.65,7.62-6.79,9.29-4.41,2.32-6.5-2.37-7.9-5.72-2.49-6.06-9.86-21.53-2.82-26.49h0a7.31,7.31,0,0,1,1.56-.86A21.14,21.14,0,0,1,368.79,820.34Zm-5-41.32c-.8,8.36-1.55,16.72-2.51,25-.14,1.2-1.32,3.24-2,3.24-4.57-.18-9.37,0-13.5-1.59-1.47-.52-2-5.64-1.65-8.45,1-7.14,1.93-14.48,4.47-21.13,1.51-3.93,6.28-9.71,9.1-9.41C363.45,767.3,364.34,773.56,363.79,779Zm-14.27,37.45a6.34,6.34,0,0,1,3.28,3.95,160.15,160.15,0,0,1,1.92,23,11.27,11.27,0,0,1-5.11,8.37c-4.1,2-7.68-.83-9.21-5.06-2.3-6.51-4.37-13.15-6.52-19.73C335.27,814.87,339.64,811.74,349.52,816.46Zm-10.19-19.64c-.35,6.48-4.86,8.81-10.22,9.78-5.72,1-6.13-4.14-7.44-7.58-4.54-11.86-.11-22.63,5.2-32.89,2.31-4.55,6.68-4.58,9.36,0A29.15,29.15,0,0,1,340,779.25h0C340.4,785,339.65,790.92,339.33,796.82ZM324.09,811.7c2.54.75,5.35.52,8.17.75,0,8,.3,15.43-.2,22.78a8.17,8.17,0,0,1-4,5.64c-1,.54-4.78-1.41-5.26-2.82a133.23,133.23,0,0,1-5.3-20.71C316.89,813.42,318.45,809.88,324.09,811.7Zm-5.81-39.44c-.27,2-1.32,4.68-1.7,6.44a27.9,27.9,0,0,1-2.59,7.82c-1.32,2.44-6,3.75-9.17,3.85-1.54,0-4.58-4.21-4.35-6.21.85-7.13,2.17-17.7,7.89-22.63a5.72,5.72,0,0,1,4.16-1.7c2.2.31,3.59,2.47,4.37,4.54a24.16,24.16,0,0,1,1.41,6.79A5.76,5.76,0,0,1,318.28,772.26ZM307.9,803.13c4.73-.13,7.74,3.69,7.55,8.33q0,.34,0,.68c-.54,4.8-4.89,11.82-7.76,15.71-3.16,4.4-7.27,3.24-7.95-2.16a51,51,0,0,1,.38-17.1C300.65,806.19,305.08,803.13,307.9,803.13ZM405,822h0a4,4,0,0,1,2.56-1.48,29.5,29.5,0,0,1,10.51,0c6.1,1.3,5.27,7.74,4.69,12.68-.68,5.83-.58,11.89-2.3,17.39-1.18,3.83-4.87,6.88-7.44,10.27-2.66-2.69-6.17-4.83-7.78-8.19s-1.66-7.51-1.69-11.5.2-7.95.42-11.92C404.2,826.66,403.72,823.76,405,822Zm49-17.18c-1.85.08-3.64,1.23-5.47.7s-4.55-1.93-4.78-3.34c-1.62-9.86-1.49-19.73,4.86-28.18,1.68-2.23,5.1-5.57,6.51-5a13,13,0,0,1,7,6.92c1.93,5.68,2.44,11.82,3,15h0C465.08,804.37,465.08,804.33,454,804.84Zm12.06,15.29h0c-1,7.72-1.65,14.7-2.94,21.56a15.57,15.57,0,0,1-3.61,7.41,7.62,7.62,0,0,1-6,2,6.24,6.24,0,0,1-3.85-4.09,23.5,23.5,0,0,1,0-8.23c.66-5.31,1.51-10.61,2.56-15.85.41-2,1.25-5.2,2.48-5.51a31,31,0,0,1,10.17-.17C465.53,817.31,465.9,819.53,466.11,820.13ZM446,830.4a93,93,0,0,1-6.38,21.26c-.87,2.17-4.76,4.61-6.92,4.31-1.82-.24-3.92-4.09-4.47-6.65-.76-3.56-.2-7.43-.2-10.44h0a79.35,79.35,0,0,0,.45-9.12c-.41-6.27,2-8.64,8.54-8.36C444.23,821.7,447.07,823.18,446,830.4ZM433.9,810.25a80.31,80.31,0,0,1-15.16,2.34l0,0c-7.07.21-13.48-1.51-13-8.76.72-9.86,1.25-19.53,6.89-28.18,6-9.21,14.84-9.72,19.06.27,3.87,9.21,5.07,19.61,6.86,29.59C438.71,806.87,435.77,809.81,433.9,810.25Zm63.15-53.82c3.24-2,8.71,11.72,9.52,14,1.56,5,2.9,11.65.25,16.5-1.31,2.41-6,5-8.74,5.5-2.14.48-2.4-.38-3-2.82a26.14,26.14,0,0,1-.54-6.31,152.45,152.45,0,0,1,1.06-23.6,4.93,4.93,0,0,1,1.27-3.1l.24-.17Zm31.87,8.24c-.15-2.62-1.41-7.21,1.41-8.92a3.13,3.13,0,0,1,4.69,1.41c1.62,4.62,3.41,9.43,3.56,14.2.06,1.62-3.23,5.27-4.76,5.75a3.1,3.1,0,0,1-3.54-1.41h0a5.75,5.75,0,0,1-.45-.75C528.27,772,529.12,767.84,528.92,764.67Zm3.16,24.25a2.72,2.72,0,0,1,1.28.49,3.92,3.92,0,0,1,1.13,1.25,9.86,9.86,0,0,1,.94,2.92,42,42,0,0,1,1.1,10.31,5,5,0,0,1-.75,2.9,5.36,5.36,0,0,1-1.54,1.23c-2.59,1.58-5,3.52-7.47,5.09-2.31-7-2.71-15.19,1.52-21.64C529.16,790.13,530.49,788.75,532.08,788.92Zm-6-11c0,1.68-5.37,3.9-8.61,4.72s-5.8-.7-5.95-4.82-.65-8.31,0-12.41a17.81,17.81,0,0,1,3-8c1.16-1.48,2.16-2.13,3.1-2.13h0c1.47,0,2.79,1.45,4.21,3.54C525.75,764.3,526.15,771.31,526,777.9Zm-5.9,24.57c2.45,8-1.41,14.58-5.2,21-1.07,1.85-4.57,1.92-6.19,1S506.29,821,506,819c0-.37-.07-.73-.1-1.07-.39-6,2-12.26,4.85-17.39S518.38,796.76,520.13,802.47Zm-24.92,5.76c5.61-2.66,8.33-1.38,7.64,4.72a70.82,70.82,0,0,1-3.61,16.33c-1.13,3.07-5.44,6.79-8.78,4.13a4.9,4.9,0,0,1-1.31-2,23.83,23.83,0,0,1-1.82-8h0C487,817.27,489.22,811.07,495.2,808.23Zm-9.21-5c-1.06,2.06-4.59,4.28-6.69,4-4.17-.54-9.27-1.41-9.19-7.58.06-4,.18-8,.42-12a144.4,144.4,0,0,1,1.82-15.79c.72-4.14,1.42-10,4.86-12.82s7.82,1.28,8.78,4.73C489.6,776.88,493.13,790.24,486,803.27Zm-15,15.06c.58-2.09,6.34-4.28,8.23-3.78,2.59.7,3.8,4.72,4.23,7.75h0a19,19,0,0,1,.2,2.07c.13,4.68-1.89,10.58-3.49,15-.73,2-3.9,4.54-5.83,4.31s-5-3.38-5-5.33C469.17,831.64,469.25,824.69,471,818.34Zm72-48.62c-.76-7-1.82-13.7,1.94-20.74V749C553,758.31,552,767.7,543,769.71Zm4.47,12.53c3,4.89.55,15-4.51,20v.06c-3.07-4.4-4-18-1.11-20.8C542.8,780.6,546.84,781.15,547.51,782.24ZM757.12,392c-1.8,19.18-7.52,38.1-12.6,56.84-3.79,14-23,23.46-35.53,6.3-6.71-9.19-11.85-19.58-17.1-29.74-5.82-11.23-12.15-22.42-16-34.36-2.41-7.54-2.2-16.78-.39-24.61,4.31-18.71,10.67-36.93,15.4-55.56a200.2,200.2,0,0,0,4.64-29.84c.45-4.55-1-9.27-1.62-13.92l-3,.08a33.18,33.18,0,0,0-.79,5c-.44,26-7.52,50.13-19.22,73.27-4.83,9.57-8.21,19.92-11.62,30.12-4.85,14.53.72,27,8.54,39,5,7.65,9.69,15.5,14.82,23.06,7.41,10.93,12,22.74,12.3,36.06.32,14.19,2.21,28.56.58,42.52-1.49,12.79-6.85,25.12-10.3,37.7a38.53,38.53,0,0,0-1.23,9.61c0,4.57,3.13,6.5,7,5.72,11.58-2.3,23.15-4.75,34.53-7.81,5.42-1.45,10.53-4.34,10.95-11.71a121,121,0,0,1-12.92,2.35c-7,.49-9.91-1.82-7.95-8.45a330.68,330.68,0,0,1,13.88-37.24c1.92-4.44,6.48-4.28,9.71-.32a16.27,16.27,0,0,1,3.16,6.14c3,12,5.21,24.5,8.74,36.15s-.34,20.32-8.27,28.56c-13.48,14-28,27.35-39.25,43-7.74,10.76-15.32,20.63-26.87,26.87a116.27,116.27,0,0,1-18.84,7.62c-22.78,7.54-45.58,10.3-68.66.63-17.25-7.23-26.53.8-33.27,14.19-10.72,21.33-11.58,43.55-9.43,66.53.38,4-1.65,8.14-2.65,12.55-9-4-9-4-18.54,6-3.51-1.94-7-5.34-10.79-2.82-.93.61-6.41,6.65-5.64,7.65-2.87-3.72-5.55-7.72-8.62-11.27-2.56-3-4.85-.7-6.47,2.3-.39.66-4.23,7.78-4.23,7.78-4.35-2.65-8.34-11.06-15.1-5.64-4.48,3.59-6.82,9.89-9.64,14.34-3.41-1.3-8.41-5-12.79-4.4-4.62.66-8.65,5.45-13.55,8.86C434.35,766,428,761,420.19,763.46c-6.73,2.1-12.6,6.95-18.65,10.45-3.69-2.87-8.17-7.27-13.46-10.23-6.17-3.47-12.23-.86-17.53,2.94-13-9.62-13.43-9.65-24.7-1.66-4.07-3.3-7.78-7.28-12.29-9.86-6.19-3.52-9.27,1.37-11.45,5.95-3.37-2.18-6.19-5.13-9.38-5.73s-6.81,1.34-10.45,2.21c-3.61-7-4.14-7.27-12-5.26-2-4.83-5.82-4.54-10.64-5a40.07,40.07,0,0,1-18.32-7.12c-2.73-1.89-3.55-7.48-4-11.55a124.5,124.5,0,0,0-21.42-55.85c-4.45-6.55-9.86-9.37-18.32-8.79-16.54,1.21-33.18,1.44-49.76,1.21-9.92-.13-17.71-5.09-24.76-12.57-11.33-12.07-23.7-23.18-35.84-34.45C96.9,608.67,86,599.86,75.94,590c-7.58-7.41-7.26-16.57-3.71-26.16,4.35-11.69,8.06-23.74,12-35.65.66-2,.85-4.17,1.59-6.13,2-5.24,5.23-5.71,8.74-1.48a3.55,3.55,0,0,1,.42.56l17.85,33.73c-4.92,5.13-10.58,8.38-18.4,7.52-2.24-.24-4.69,1.72-7,2.66,1.41,2,2.45,4.38,4.23,5.79,6.72,5.52,14.72,6.11,22.67,4.11a118.46,118.46,0,0,0,19.11-7c5.58-2.49,5.93-6.89,2.2-11.84-7-9.3-14.08-18.61-20.51-28.31-11.69-17.54-10.17-37-6.42-56.36,4.68-24.07,19-43.47,31.45-63.76,5.79-9.44,15.48-16.67,16.56-28.79a20.49,20.49,0,0,0-.37-7.54c-5.89-19.44-17.63-36-26.26-54.15-4.1-8.58-5.28-18.61-7.38-28.07-.69-3.11-.11-6.51-.11-9.76l-1.79-.54a38.45,38.45,0,0,0-2.44,6.9c-3.55,23,2.23,43.1,18.81,59.92,7.78,7.89,8.23,31.56.86,41.94-10.41,14.71-21.23,29.12-31.84,43.68-4.73,6.4-10,10.95-18.82,9.54-9.62-1.47-12.09-9.21-14.33-16.34-11.62-37.15-13.54-75.42-11.54-114,1-18.88,1.9-37.89,4.95-56.49,1.93-11.89,6.86-23.4,11.91-34.44a418.84,418.84,0,0,1,73.13-110c8.85-9.61,17.41-19.71,27.47-27.93a281,281,0,0,1,89.41-48.81C288.71,26,309.7,23.14,331,21.62,366,19.11,401.09,15.7,436.18,15c21-.44,42.23,2.25,62.94,5.92A341.27,341.27,0,0,1,557.4,36.51c25.43,9.37,50.23,20.49,72.84,36,26.56,18.18,52.37,37.17,73.62,61.61C724.67,158,738.69,185.3,747.21,216c9.29,33.42,11.61,67.29,11.19,101.63C758.09,342.43,759.43,367.41,757.12,392Z" transform="translate(-51.15 -2.88)"/><path d="M240.34,409.1c20.57,0,41.16-.51,61.7.23a101.29,101.29,0,0,1,28.76,5c18.11,6.19,23.68,22,26.42,39,3.2,19.85-7.5,33.89-19.49,48.09-16.39,19.42-38.87,29.67-59.39,43-13.4,8.74-26.59,17.67-42.69,20.63-4.54.83-9.43,2.27-13.74,1.41-13.46-2.82-27.07-5.54-39.93-10.19-10.95-4-18.5-12.41-23.84-23.52-8.31-17.27-11.86-34.83-9.06-53.77.51-3.44.07-7,.44-10.47,2.16-20.77,16.29-33.29,32-43.68C199.12,413.22,219.17,408.38,240.34,409.1Z" transform="translate(-51.15 -2.88)"/><path d="M660.29,490.09c-1.23,13.58-1.82,25.36-3.42,36.89-3.25,23.54-23.53,41.92-51.55,37.94a162.19,162.19,0,0,0-32.08-1.69c-16.27,1-30.59-5.06-44.33-11.72-14.09-6.81-27.08-15.81-40.06-24.59C477,518.86,470.77,506,468.43,492.75c-2.61-14.79-4.14-30.66-1.63-45.28,4.14-24.25,21.59-37.56,44.73-29.15,28,10.17,55.88,7.3,83.93,7.35,14.09,0,28.18,1,40.51,7,10.55,5.1,19.6,13.39,20.44,27.28C657.08,470.56,659.11,481.16,660.29,490.09Z" transform="translate(-51.15 -2.88)"/><path d="M395.24,539.53C402.62,545,409,551.7,417,540.76c1.87,3.83,3.3,6.34,4.37,9a54,54,0,0,1,2.59,8c5.86,25.28,18.43,47.9,28.4,71.53,7.34,17.39,5.64,36.87-7,49.72-6.4,6.44-15.27,7-23.83,5.88-14.22-2-14.75-2.82-17.29-17.32a94.64,94.64,0,0,1-1.13-11.17,89.2,89.2,0,0,0-.62-10.23c-2,9.29-4.09,18.54-5.85,27.86-2.17,11.43-9.38,13.53-21.74,12.17-23.4-2.58-29.93-17.82-27.22-42.13,2.11-19,13.74-32.87,24.4-47.45,8.55-11.68,15.72-24.14,17.71-39C390.52,551.79,393.14,546.21,395.24,539.53Z" transform="translate(-51.15 -2.88)"/></svg>